<svg xmlns="http://www.w3.org/2000/svg" viewBox="0 0 200 200">
  <defs>
    <linearGradient id="g" x1="0" x2="1" y1="0" y2="1">
      <stop offset="0%" stop-color="#9dc183"/>
      <stop offset="100%" stop-color="#b7a9e0"/>
    </linearGradient>
  </defs>
  <path fill="url(#g)" d="M46.7,-55.7C59.2,-46.3,67,-30.4,68.5,-15.1C69.9,0.2,65,14.7,57.5,28.9C49.9,43.1,39.7,57,25.7,63.7C11.7,70.3,-6,69.7,-22.1,63.1C-38.2,56.5,-52.6,43.9,-59,28.6C-65.4,13.3,-63.8,-4.6,-57.4,-19.2C-50.9,-33.8,-39.6,-45.2,-26.6,-54.8C-13.6,-64.4,1.1,-72.3,16.7,-72.2C32.2,-72.1,46.7,-64.9,46.7,-55.7Z" transform="translate(100 100)"/>
</svg>
